HIERARCHY
ROOT newVegas:Hips
{
	OFFSET 0.000000 96.479958 0.000000
	CHANNELS 6 Xposition Yposition Zposition Xrotation Yrotation Zrotation
	JOINT newVegas:Pelvis
	{
		OFFSET 0.000000 0.000000 0.000000
		CHANNELS 3 Xrotation Yrotation Zrotation
		JOINT newVegas:LeftUpLeg
		{
			OFFSET 18.735201 -5.666702 -4.541200
			CHANNELS 3 Xrotation Yrotation Zrotation
			JOINT newVegas:LeftLeg
			{
				OFFSET -0.021200 -31.938179 0.493100
				CHANNELS 3 Xrotation Yrotation Zrotation
				JOINT newVegas:LeftFoot
				{
					OFFSET 0.021200 -31.938179 -4.336299
					CHANNELS 3 Xrotation Yrotation Zrotation
					JOINT newVegas:LeftToeBase
					{
						OFFSET 0.943001 -26.722000 15.023500
						CHANNELS 3 Xrotation Yrotation Zrotation
						End Site
						{
							OFFSET 0.000000 30.670183 0.000000
						}
					}
				}
				JOINT newVegas:Left_PantLeg
				{
					OFFSET 0.663870 -9.044666 -1.108900
					CHANNELS 3 Xrotation Yrotation Zrotation
					End Site
					{
						OFFSET 1.415995 20.635357 0.000000
					}
				}
			}
		}
		JOINT newVegas:RightUpLeg
		{
			OFFSET -18.735201 -5.666702 -4.541200
			CHANNELS 3 Xrotation Yrotation Zrotation
			JOINT newVegas:RightLeg
			{
				OFFSET 0.018946 -31.938133 0.493100
				CHANNELS 3 Xrotation Yrotation Zrotation
				JOINT newVegas:RightFoot
				{
					OFFSET -0.018946 -31.938126 -4.336299
					CHANNELS 3 Xrotation Yrotation Zrotation
					JOINT newVegas:RightToeBase
					{
						OFFSET -0.943001 -26.722004 15.023500
						CHANNELS 3 Xrotation Yrotation Zrotation
						End Site
						{
							OFFSET 0.000000 30.670187 0.000000
						}
					}
				}
				JOINT newVegas:Right_PantLeg
				{
					OFFSET -0.661674 -9.044716 -1.108900
					CHANNELS 3 Xrotation Yrotation Zrotation
					End Site
					{
						OFFSET -1.415958 20.635269 0.000000
					}
				}
			}
		}
	}
	JOINT newVegas:Spine
	{
		OFFSET 0.000000 10.199997 -0.299500
		CHANNELS 3 Xrotation Yrotation Zrotation
		JOINT newVegas:Spine1
		{
			OFFSET 0.000000 11.900002 -1.516600
			CHANNELS 3 Xrotation Yrotation Zrotation
			JOINT newVegas:Spine2
			{
				OFFSET 0.000000 13.600006 -2.842500
				CHANNELS 3 Xrotation Yrotation Zrotation
				JOINT newVegas:Neck
				{
					OFFSET 0.000000 9.624100 -2.890100
					CHANNELS 3 Xrotation Yrotation Zrotation
					JOINT newVegas:Head
					{
						OFFSET 0.000000 14.068802 -1.351900
						CHANNELS 3 Xrotation Yrotation Zrotation
						JOINT newVegas:Hair_Back
						{
							OFFSET 0.000000 3.231903 -17.524799
							CHANNELS 3 Xrotation Yrotation Zrotation
							End Site
							{
								OFFSET 0.000000 19.849884 0.000000
							}
						}
						JOINT newVegas:Hair_Front
						{
							OFFSET 0.000000 31.260406 4.573800
							CHANNELS 3 Xrotation Yrotation Zrotation
							JOINT newVegas:Hair_Front1
							{
								OFFSET 0.000000 2.284103 11.993300
								CHANNELS 3 Xrotation Yrotation Zrotation
								JOINT newVegas:Hair_Front2
								{
									OFFSET 0.000000 2.284103 11.993300
									CHANNELS 3 Xrotation Yrotation Zrotation
									End Site
									{
										OFFSET 0.000000 12.208862 0.000000
									}
								}
							}
						}
						JOINT newVegas:Jowel
						{
							OFFSET 0.000000 -7.458206 6.864100
							CHANNELS 3 Xrotation Yrotation Zrotation
							End Site
							{
								OFFSET 0.000000 19.849884 0.000000
							}
						}
					}
				}
				JOINT newVegas:LeftShoulder
				{
					OFFSET 15.263000 10.923401 -0.547700
					CHANNELS 3 Xrotation Yrotation Zrotation
					JOINT newVegas:LeftArm
					{
						OFFSET 25.438599 -2.830597 -13.032500
						CHANNELS 3 Xrotation Yrotation Zrotation
						JOINT newVegas:LeftForeArm
						{
							OFFSET 29.960503 0.000000 0.000000
							CHANNELS 3 Xrotation Yrotation Zrotation
							JOINT newVegas:LeftHand
							{
								OFFSET 27.849251 0.000000 0.000000
								CHANNELS 3 Xrotation Yrotation Zrotation
								JOINT newVegas:LeftHandThumb1
								{
									OFFSET 4.487587 -3.305161 6.305391
									CHANNELS 3 Xrotation Yrotation Zrotation
									JOINT newVegas:LeftHandThumb2
									{
										OFFSET 5.480453 -3.164139 3.164143
										CHANNELS 3 Xrotation Yrotation Zrotation
										JOINT newVegas:LeftHandThumb3
										{
											OFFSET 5.159721 -2.978973 2.978967
											CHANNELS 3 Xrotation Yrotation Zrotation
											End Site
											{
												OFFSET 2.494507 5.926697 1.738678
											}
										}
									}
								}
								JOINT newVegas:LeftHandIndex1
								{
									OFFSET 18.578728 -0.527832 5.208049
									CHANNELS 3 Xrotation Yrotation Zrotation
									JOINT newVegas:LeftHandIndex2
									{
										OFFSET 3.192009 0.000000 0.000000
										CHANNELS 3 Xrotation Yrotation Zrotation
										JOINT newVegas:LeftHandIndex3
										{
											OFFSET 3.835129 0.000000 0.000000
											CHANNELS 3 Xrotation Yrotation Zrotation
											End Site
											{
												OFFSET -0.034599 3.816971 0.371180
											}
										}
									}
								}
								JOINT newVegas:LeftHandMiddle1
								{
									OFFSET 18.476105 0.000000 0.000000
									CHANNELS 3 Xrotation Yrotation Zrotation
									JOINT newVegas:LeftHandMiddle2
									{
										OFFSET 3.324875 0.000000 0.000000
										CHANNELS 3 Xrotation Yrotation Zrotation
										JOINT newVegas:LeftHandMiddle3
										{
											OFFSET 4.596550 0.000000 0.000000
											CHANNELS 3 Xrotation Yrotation Zrotation
											End Site
											{
												OFFSET 0.057701 4.578827 0.399218
											}
										}
									}
								}
								JOINT newVegas:LeftHandRing1
								{
									OFFSET 17.732719 0.121887 -4.201567
									CHANNELS 3 Xrotation Yrotation Zrotation
									JOINT newVegas:LeftHandRing2
									{
										OFFSET 2.733170 0.000000 0.000000
										CHANNELS 3 Xrotation Yrotation Zrotation
										JOINT newVegas:LeftHandRing3
										{
											OFFSET 3.178268 0.000000 0.000000
											CHANNELS 3 Xrotation Yrotation Zrotation
											End Site
											{
												OFFSET 0.119102 3.170624 0.185394
											}
										}
									}
								}
								JOINT newVegas:LeftHandPinky1
								{
									OFFSET 15.989624 -0.606689 -7.535461
									CHANNELS 3 Xrotation Yrotation Zrotation
									JOINT newVegas:LeftHandPinky2
									{
										OFFSET 2.538986 0.000000 0.000000
										CHANNELS 3 Xrotation Yrotation Zrotation
										JOINT newVegas:LeftHandPinky3
										{
											OFFSET 2.593102 0.000000 0.000000
											CHANNELS 3 Xrotation Yrotation Zrotation
											End Site
											{
												OFFSET -0.150902 2.584198 0.152708
											}
										}
									}
								}
							}
							JOINT newVegas:Left_Sleeve
							{
								OFFSET 0.267448 -0.649796 0.577675
								CHANNELS 3 Xrotation Yrotation Zrotation
								End Site
								{
									OFFSET 0.000000 15.991241 0.000000
								}
							}
							JOINT newVegas:Left_CapeC
							{
								OFFSET 15.715958 -8.608795 -6.935905
								CHANNELS 3 Xrotation Yrotation Zrotation
								JOINT newVegas:Left_CapeC1
								{
									OFFSET 0.000000 -8.688499 0.000000
									CHANNELS 3 Xrotation Yrotation Zrotation
									End Site
									{
										OFFSET 0.000000 8.688499 0.000000
									}
								}
							}
						}
						JOINT newVegas:Left_CapeB
						{
							OFFSET 26.118385 -8.608795 -7.079235
							CHANNELS 3 Xrotation Yrotation Zrotation
							JOINT newVegas:Left_CapeB1
							{
								OFFSET 0.000000 -8.688499 0.000000
								CHANNELS 3 Xrotation Yrotation Zrotation
								End Site
								{
									OFFSET 0.000000 8.688499 0.000000
								}
							}
						}
						JOINT newVegas:Left_CapeA
						{
							OFFSET 5.115639 -8.608795 -10.395809
							CHANNELS 3 Xrotation Yrotation Zrotation
							JOINT newVegas:Left_CapeA1
							{
								OFFSET 0.000000 -8.688499 0.000000
								CHANNELS 3 Xrotation Yrotation Zrotation
								End Site
								{
									OFFSET 0.000000 8.688499 0.000000
								}
							}
						}
					}
				}
				JOINT newVegas:RightShoulder
				{
					OFFSET -15.263000 10.923401 -0.547700
					CHANNELS 3 Xrotation Yrotation Zrotation
					JOINT newVegas:RightArm
					{
						OFFSET -25.438599 -2.830597 -13.032500
						CHANNELS 3 Xrotation Yrotation Zrotation
						JOINT newVegas:RightForeArm
						{
							OFFSET -29.960503 0.000000 0.000000
							CHANNELS 3 Xrotation Yrotation Zrotation
							JOINT newVegas:RightHand
							{
								OFFSET -27.849251 0.000000 0.000000
								CHANNELS 3 Xrotation Yrotation Zrotation
								JOINT newVegas:RightHandThumb1
								{
									OFFSET -4.487587 -3.305161 6.305391
									CHANNELS 3 Xrotation Yrotation Zrotation
									JOINT newVegas:RightHandThumb2
									{
										OFFSET -5.480453 -3.164139 3.164143
										CHANNELS 3 Xrotation Yrotation Zrotation
										JOINT newVegas:RightHandThumb3
										{
											OFFSET -5.159721 -2.978973 2.978967
											CHANNELS 3 Xrotation Yrotation Zrotation
											End Site
											{
												OFFSET -2.494507 5.926697 1.738678
											}
										}
									}
								}
								JOINT newVegas:RightHandIndex1
								{
									OFFSET -18.578728 -0.527832 5.208049
									CHANNELS 3 Xrotation Yrotation Zrotation
									JOINT newVegas:RightHandIndex2
									{
										OFFSET -3.192009 0.000000 0.000000
										CHANNELS 3 Xrotation Yrotation Zrotation
										JOINT newVegas:RightHandIndex3
										{
											OFFSET -3.835129 0.000000 0.000000
											CHANNELS 3 Xrotation Yrotation Zrotation
											End Site
											{
												OFFSET 0.034599 3.816971 0.371180
											}
										}
									}
								}
								JOINT newVegas:RightHandMiddle1
								{
									OFFSET -18.476105 0.000000 0.000000
									CHANNELS 3 Xrotation Yrotation Zrotation
									JOINT newVegas:RightHandMiddle2
									{
										OFFSET -3.324875 0.000000 0.000000
										CHANNELS 3 Xrotation Yrotation Zrotation
										JOINT newVegas:RightHandMiddle3
										{
											OFFSET -4.596550 0.000000 0.000000
											CHANNELS 3 Xrotation Yrotation Zrotation
											End Site
											{
												OFFSET -0.057701 4.578827 0.399218
											}
										}
									}
								}
								JOINT newVegas:RightHandRing1
								{
									OFFSET -17.732719 0.121887 -4.201567
									CHANNELS 3 Xrotation Yrotation Zrotation
									JOINT newVegas:RightHandRing2
									{
										OFFSET -2.733170 0.000000 0.000000
										CHANNELS 3 Xrotation Yrotation Zrotation
										JOINT newVegas:RightHandRing3
										{
											OFFSET -3.178268 0.000000 0.000000
											CHANNELS 3 Xrotation Yrotation Zrotation
											End Site
											{
												OFFSET -0.119102 3.170624 0.185394
											}
										}
									}
								}
								JOINT newVegas:RightHandPinky1
								{
									OFFSET -15.989624 -0.606689 -7.535461
									CHANNELS 3 Xrotation Yrotation Zrotation
									JOINT newVegas:RightHandPinky2
									{
										OFFSET -2.538986 0.000000 0.000000
										CHANNELS 3 Xrotation Yrotation Zrotation
										JOINT newVegas:RightHandPinky3
										{
											OFFSET -2.593102 0.000000 0.000000
											CHANNELS 3 Xrotation Yrotation Zrotation
											End Site
											{
												OFFSET 0.150902 2.584198 0.152708
											}
										}
									}
								}
							}
							JOINT newVegas:Right_CapeC
							{
								OFFSET -15.715958 -8.608795 -6.935905
								CHANNELS 3 Xrotation Yrotation Zrotation
								JOINT newVegas:Right_CapeC1
								{
									OFFSET 0.000000 -8.688499 0.000000
									CHANNELS 3 Xrotation Yrotation Zrotation
									End Site
									{
										OFFSET 0.000000 8.688499 0.000000
									}
								}
							}
							JOINT newVegas:Right_Sleeve
							{
								OFFSET -0.267448 -0.649994 0.577675
								CHANNELS 3 Xrotation Yrotation Zrotation
								End Site
								{
									OFFSET 0.000000 15.991302 0.000000
								}
							}
						}
						JOINT newVegas:Right_CapeA
						{
							OFFSET -5.115540 -8.608795 -10.395824
							CHANNELS 3 Xrotation Yrotation Zrotation
							JOINT newVegas:Right_CapeA1
							{
								OFFSET 0.000000 -8.688499 0.000000
								CHANNELS 3 Xrotation Yrotation Zrotation
								End Site
								{
									OFFSET 0.000000 8.688499 0.000000
								}
							}
						}
						JOINT newVegas:Right_CapeB
						{
							OFFSET -26.118187 -8.608795 -7.079266
							CHANNELS 3 Xrotation Yrotation Zrotation
							JOINT newVegas:Right_CapeB1
							{
								OFFSET 0.000000 -8.688499 0.000000
								CHANNELS 3 Xrotation Yrotation Zrotation
								End Site
								{
									OFFSET 0.000000 8.688499 0.000000
								}
							}
						}
					}
				}
				JOINT newVegas:Left_Collar
				{
					OFFSET 18.625099 8.655502 8.828100
					CHANNELS 3 Xrotation Yrotation Zrotation
					JOINT newVegas:Left_Collar1
					{
						OFFSET 14.783401 10.540405 -1.259500
						CHANNELS 3 Xrotation Yrotation Zrotation
						End Site
						{
							OFFSET 0.000000 18.199875 0.000000
						}
					}
				}
				JOINT newVegas:Collar_Back
				{
					OFFSET 0.000000 15.630707 -20.132601
					CHANNELS 3 Xrotation Yrotation Zrotation
					End Site
					{
						OFFSET 0.000000 22.523010 0.000000
					}
				}
				JOINT newVegas:Left_Peck
				{
					OFFSET 17.239599 -5.132599 25.482599
					CHANNELS 3 Xrotation Yrotation Zrotation
					End Site
					{
						OFFSET 0.000000 22.523010 0.000000
					}
				}
				JOINT newVegas:Right_Peck
				{
					OFFSET -17.239599 -5.132202 25.482599
					CHANNELS 3 Xrotation Yrotation Zrotation
					End Site
					{
						OFFSET 0.000000 22.523010 0.000000
					}
				}
				JOINT newVegas:Right_Collar
				{
					OFFSET -18.625099 8.655792 8.828100
					CHANNELS 3 Xrotation Yrotation Zrotation
					JOINT newVegas:Right_Collar1
					{
						OFFSET -14.783401 10.539993 -1.259500
						CHANNELS 3 Xrotation Yrotation Zrotation
						End Site
						{
							OFFSET 0.000000 18.199631 0.000000
						}
					}
				}
			}
		}
		JOINT newVegas:Belly
		{
			OFFSET 0.000000 -6.540398 9.014299
			CHANNELS 3 Xrotation Yrotation Zrotation
			End Site
			{
				OFFSET 0.000000 11.566666 0.000000
			}
		}
	}
	JOINT newVegas:ElvisFacialAnim_Joint
	{
		OFFSET 1.000000 -95.330101 -8.825800
		CHANNELS 3 Xrotation Yrotation Zrotation
		End Site
		{
			OFFSET 0.000000 35.315800 0.000000
		}
	}
}
MOTION
Frames: 4
Frame Time: 0.033333
-3.815590 53.947014 2.951820 -0.029642 -49.094392 -5.698636 0.000000 0.000001 -0.000000 -86.926998 -29.978366 53.695075 104.278247 -29.648533 3.623849 -3.514473 4.458862 -20.002344 -0.000000 -0.000002 -0.000000 0.000000 0.000004 0.000001 -34.440655 19.291007 -30.669875 105.255667 13.194198 -6.217658 -61.078625 -17.069884 32.740676 -0.000000 -0.000002 0.000000 -0.000000 0.000002 -0.000002 16.836913 2.171166 -2.562659 17.835910 4.375432 -5.522433 5.990404 5.416558 -4.505850 -3.985321 2.176205 2.108010 -3.985295 2.176209 2.108006 -0.000000 -0.000000 0.000000 -3.985243 2.176242 2.108003 -3.985346 2.176178 2.108018 -0.000003 -0.000000 -0.000000 -0.000000 -0.000000 0.000000 -0.049254 -16.332406 -3.590315 -21.611456 26.907549 -41.648926 -37.847591 -55.884246 -26.060997 2.490201 -2.501018 6.854468 18.457942 -9.513828 13.216612 -1.150195 11.255368 -8.400847 -0.000001 -0.000003 -0.000005 -1.232794 -5.771949 -0.192359 0.134015 -0.197569 -4.602034 -0.000002 0.000001 -0.000002 1.884732 4.663332 -4.597404 0.476613 -1.009811 -12.986591 0.000001 -0.000001 -0.000001 3.024590 7.938942 -14.103470 -0.707987 -0.566156 -18.895665 0.000001 0.000003 0.000001 2.010424 6.305932 -22.386580 -0.815496 -0.210708 -16.746584 -0.000003 -0.000005 -0.000000 -0.000002 0.000000 -0.000001 -0.000002 0.000000 -0.000001 -0.000003 0.000000 -0.000001 -0.000002 0.000003 0.000003 -0.000001 0.000002 -0.000001 -0.000002 0.000003 0.000003 -0.000002 0.000002 0.000003 -2.815173 25.523106 0.874298 6.732509 -36.041184 57.651427 -21.037304 44.840530 19.968155 -0.088490 35.611845 7.477420 55.149543 18.649572 -29.698216 -0.442549 -14.180573 7.313146 0.000001 -0.000003 -0.000003 5.673397 7.585016 36.844154 1.050438 3.824458 68.900127 0.000002 -0.000001 0.000000 -0.125737 1.886057 45.000783 -1.169045 3.204695 68.417691 0.000001 0.000000 0.000001 -5.312014 1.216660 58.508835 -0.745195 1.667598 48.011196 0.000001 -0.000001 0.000002 -7.756824 -9.376502 47.263915 -0.526037 1.541591 45.600515 0.000001 0.000003 -0.000001 0.000001 0.000001 0.000003 0.000000 0.000001 0.000003 0.000001 0.000001 0.000004 -0.000002 -0.000001 -0.000000 -0.000002 0.000000 -0.000000 -0.000002 -0.000001 -0.000000 -0.000001 -0.000000 -0.000000 0.000002 0.000002 -0.000001 0.000002 0.000002 -0.000001 0.000002 0.000002 -0.000001 0.000002 0.000002 -0.000001 0.000002 0.000002 -0.000001 0.000002 0.000002 -0.000001 0.000002 0.000002 -0.000001 -0.000001 0.000001 -0.000000 0.000000 0.000001 -0.000000 
-4.130961 55.461304 2.963197 1.854342 -49.118455 -3.276287 0.000000 -0.000000 -0.000000 -85.797134 -26.071143 53.494455 101.830751 -28.866551 3.739602 -4.662973 4.892171 -19.745693 0.000000 -0.000000 0.000000 0.000000 -0.000000 -0.000001 -35.041346 18.684589 -30.294365 103.352251 11.717383 -6.381458 -59.929637 -17.016875 32.774813 -0.000000 0.000000 0.000000 -0.000001 0.000001 -0.000002 14.454398 2.417791 -4.379802 17.871219 4.611922 -4.894992 5.919364 5.857607 -3.839854 -4.075319 2.258004 1.968510 -4.075324 2.258011 1.968512 0.000001 0.000002 -0.000002 -4.075265 2.258007 1.968509 -4.075404 2.257986 1.968521 -0.000000 0.000002 -0.000001 0.000001 0.000002 -0.000003 -0.108427 -16.327000 -3.567022 -20.836906 26.118918 -43.031643 -35.363236 -56.236509 -23.986255 2.934829 -2.109747 7.584590 17.870077 -9.068884 13.485490 -0.988260 11.462463 -8.419651 0.000001 0.000000 -0.000004 -1.478003 -5.656869 -0.818183 0.129065 -0.253223 -5.839024 -0.000005 0.000002 -0.000002 1.138812 4.408227 -5.748938 0.446587 -1.102456 -14.862649 -0.000000 -0.000003 0.000003 2.229504 7.473239 -15.472424 -0.733560 -0.656066 -20.638690 -0.000001 0.000001 0.000000 0.834574 6.414866 -23.006869 -0.836908 -0.308039 -18.520644 0.000000 0.000000 0.000000 0.000001 -0.000000 0.000001 0.000001 -0.000000 0.000001 0.000000 -0.000000 0.000001 -0.000002 -0.000001 -0.000001 -0.000001 -0.000002 -0.000004 -0.000002 -0.000001 -0.000001 -0.000002 -0.000002 -0.000002 -3.036545 25.642499 1.626619 3.880835 -35.328822 55.137464 -18.520493 42.066879 17.159220 0.129257 33.953451 7.701071 55.149546 18.649577 -29.698209 -0.442550 -14.180569 7.313151 -0.000001 -0.000003 -0.000006 5.673395 7.585017 36.844154 1.050438 3.824459 68.900127 0.000000 0.000000 -0.000002 -0.125737 1.886057 45.000790 -1.169045 3.204694 68.417691 -0.000004 -0.000000 -0.000000 -5.312019 1.216660 58.508842 -0.745195 1.667595 48.011196 0.000001 -0.000001 0.000001 -7.756826 -9.376508 47.263915 -0.526037 1.541584 45.600508 0.000001 0.000003 0.000001 -0.000001 -0.000003 -0.000000 -0.000002 -0.000003 0.000003 0.000000 -0.000001 -0.000001 0.000001 0.000000 0.000001 0.000001 0.000001 0.000002 0.000001 0.000000 0.000001 0.000001 0.000000 0.000002 -0.000002 -0.000002 -0.000000 -0.000002 -0.000002 -0.000000 -0.000002 -0.000002 -0.000000 -0.000002 -0.000002 -0.000000 -0.000002 -0.000002 -0.000000 -0.000002 -0.000002 -0.000000 -0.000002 -0.000002 -0.000000 0.000002 -0.000004 -0.000000 0.000000 -0.000000 -0.000000 
-4.483677 57.515350 3.135909 2.811576 -49.141592 -1.733187 0.000000 -0.000001 0.000000 -83.619991 -21.681273 53.496101 98.822585 -28.120008 3.834095 -5.993397 5.238636 -19.265447 0.000000 0.000002 0.000000 -0.000001 0.000001 0.000000 -34.882387 17.259012 -29.983325 100.294996 10.370602 -6.555870 -58.167537 -16.460163 32.556547 -0.000000 -0.000000 -0.000000 -0.000002 -0.000000 0.000000 12.915685 2.613034 -5.335718 17.559216 4.923058 -4.592743 5.524612 6.298512 -3.508923 -4.060465 2.312657 1.840350 -4.060456 2.312652 1.840349 -0.000000 -0.000000 0.000000 -4.060399 2.312663 1.840350 -4.060544 2.312669 1.840349 -0.000001 -0.000001 0.000001 -0.000000 -0.000000 0.000000 -0.232871 -16.266727 -3.505048 -18.767951 26.145942 -45.272430 -33.522797 -59.170059 -23.173444 3.703992 -0.088294 8.084892 16.365538 -7.975935 14.190836 -0.576421 11.984340 -8.466581 0.000007 0.000001 -0.000008 -2.085986 -5.334387 -2.396961 0.111152 -0.393419 -8.968573 -0.000001 0.000000 0.000001 -0.783191 3.908679 -8.693933 0.360063 -1.332215 -19.609772 0.000004 -0.000003 0.000002 0.134108 6.488583 -19.004242 -0.812932 -0.878727 -25.048961 0.000005 -0.000002 0.000001 -2.124644 6.821848 -24.599944 -0.911921 -0.547245 -23.009302 -0.000003 -0.000002 -0.000001 -0.000002 0.000004 -0.000001 -0.000002 0.000004 -0.000001 -0.000003 0.000004 -0.000001 0.000003 0.000000 -0.000000 0.000003 -0.000001 0.000001 0.000003 0.000000 -0.000000 0.000002 0.000001 -0.000000 -3.266725 25.714593 2.279988 1.890066 -34.755903 53.180174 -15.956358 39.933965 14.660690 0.444188 32.402230 7.441238 55.149553 18.649579 -29.698212 -0.442550 -14.180570 7.313144 0.000002 -0.000001 0.000001 5.673398 7.585014 36.844147 1.050437 3.824462 68.900134 -0.000001 -0.000001 -0.000001 -0.125737 1.886058 45.000787 -1.169046 3.204694 68.417691 0.000001 0.000001 -0.000002 -5.312020 1.216662 58.508835 -0.745195 1.667596 48.011199 0.000000 -0.000001 0.000000 -7.756831 -9.376505 47.263915 -0.526037 1.541588 45.600508 -0.000000 -0.000000 -0.000001 -0.000001 -0.000001 0.000000 0.000001 -0.000003 0.000002 -0.000001 -0.000001 0.000002 -0.000001 0.000001 -0.000000 -0.000001 0.000002 -0.000000 -0.000001 0.000001 -0.000000 -0.000001 0.000002 0.000001 0.000001 -0.000001 -0.000000 0.000001 -0.000001 -0.000000 0.000001 -0.000001 -0.000000 0.000001 -0.000001 -0.000000 0.000001 -0.000001 -0.000000 0.000001 -0.000001 -0.000000 0.000001 -0.000001 -0.000000 0.000001 0.000001 -0.000001 0.000000 -0.000001 0.000000 
-4.868016 59.944916 3.471003 2.856005 -49.210557 -1.042743 -0.000000 0.000001 -0.000000 -80.633156 -17.025560 53.615086 95.334947 -27.366078 3.903172 -7.309766 5.366351 -18.678250 0.000000 -0.000000 0.000000 0.000000 0.000000 0.000001 -33.844663 15.252381 -29.845779 96.246675 9.344619 -6.700769 -55.991944 -15.545531 32.116390 -0.000000 0.000003 0.000000 -0.000001 -0.000001 -0.000000 12.124452 2.781336 -5.350875 16.967013 5.244627 -4.674191 4.900887 6.639926 -3.565798 -3.843149 2.331043 1.742657 -3.843149 2.331064 1.742641 -0.000001 0.000000 -0.000001 -3.843079 2.331051 1.742650 -3.843227 2.331067 1.742653 0.000001 -0.000002 0.000002 -0.000001 0.000000 -0.000001 -0.376193 -16.311255 -3.463650 -19.297279 24.686508 -46.522529 -26.224199 -57.577375 -16.804077 5.022412 -0.390907 6.617095 14.303487 -6.581578 15.194955 -0.024016 12.687088 -8.541158 0.000001 -0.000003 -0.000005 -2.872006 -4.832010 -4.509088 0.075053 -0.580098 -13.178112 -0.000003 -0.000000 0.000000 -3.423665 3.573207 -12.712906 0.220568 -1.629680 -25.995949 -0.000002 -0.000002 -0.000000 -2.836652 5.624798 -23.893033 -0.951788 -1.164371 -30.981871 -0.000003 0.000001 -0.000001 -6.057537 7.668386 -26.774751 -1.050237 -0.852269 -29.047794 -0.000000 -0.000004 0.000004 0.000003 0.000001 -0.000001 0.000003 0.000001 -0.000001 0.000003 0.000002 -0.000001 0.000003 0.000000 0.000001 0.000004 -0.000001 0.000001 0.000003 0.000000 0.000001 0.000002 -0.000000 0.000001 -3.438647 25.769342 2.622771 1.188056 -34.571658 52.449036 -13.522423 39.616470 12.882904 0.959631 30.227118 6.235370 55.149553 18.649579 -29.698212 -0.442551 -14.180566 7.313143 0.000000 -0.000002 -0.000003 5.673397 7.585016 36.844154 1.050437 3.824461 68.900127 -0.000001 -0.000002 -0.000002 -0.125734 1.886054 45.000797 -1.169046 3.204691 68.417691 0.000002 -0.000000 0.000001 -5.312018 1.216662 58.508842 -0.745195 1.667597 48.011196 0.000002 0.000001 -0.000001 -7.756821 -9.376505 47.263919 -0.526038 1.541587 45.600508 -0.000002 -0.000002 -0.000000 -0.000001 -0.000001 -0.000001 0.000001 -0.000000 0.000003 0.000001 -0.000000 0.000000 0.000001 0.000001 -0.000001 0.000001 0.000002 -0.000001 0.000001 0.000001 -0.000001 0.000001 0.000002 -0.000000 0.000001 0.000003 -0.000002 0.000001 0.000003 -0.000002 0.000001 0.000003 -0.000002 0.000001 0.000003 -0.000002 0.000001 0.000003 -0.000002 0.000001 0.000003 -0.000002 0.000001 0.000003 -0.000002 -0.000000 -0.000001 -0.000000 -0.000000 0.000001 -0.000000 
